<svg width="49" height="34" viewBox="0 0 49 34" fill="none" xmlns="http://www.w3.org/2000/svg">
<rect width="49" height="34" fill="#C998FB"/>
<path d="M43.8162 22.8503H23.902L24.9019 20.7365L41.5154 20.7052C42.0772 20.7052 42.5588 20.2887 42.6591 19.7125L44.9599 6.34598C45.0201 5.99541 44.9298 5.63444 44.7091 5.36023C44.6 5.22528 44.4639 5.11658 44.3103 5.04166C44.1567 4.96674 43.9892 4.9274 43.8195 4.92637L22.6848 4.85348L22.5042 3.97186C22.3905 3.40957 21.9022 3 21.3471 3H16.1805C15.8674 3 15.5671 3.12909 15.3458 3.35886C15.1244 3.58864 15 3.90029 15 4.22524C15 4.55019 15.1244 4.86184 15.3458 5.09161C15.5671 5.32139 15.8674 5.45048 16.1805 5.45048H20.3907L21.1799 9.34486L23.1228 19.1086L20.6214 23.3466C20.4915 23.5286 20.4133 23.7446 20.3956 23.9704C20.3778 24.1961 20.4213 24.4225 20.5211 24.6239C20.7218 25.0369 21.1264 25.2973 21.5745 25.2973H23.6746C23.2269 25.9145 22.9851 26.6662 22.9857 27.4388C22.9857 29.4034 24.524 31 26.4168 31C28.3096 31 29.8478 29.4034 29.8478 27.4388C29.8478 26.6648 29.6004 25.9116 29.159 25.2973H34.5463C34.0986 25.9145 33.8568 26.6662 33.8574 27.4388C33.8574 29.4034 35.3957 31 37.2885 31C39.1812 31 40.7195 29.4034 40.7195 27.4388C40.7195 26.6648 40.4721 25.9116 40.0307 25.2973H43.8195C44.4683 25.2973 45 24.7489 45 24.072C44.9981 23.7474 44.8725 23.4368 44.6507 23.2079C44.4289 22.979 44.1289 22.8504 43.8162 22.8503ZM23.1763 7.26925L42.4317 7.33519L40.5456 18.2964L25.4202 18.3242L23.1763 7.26925ZM26.4168 28.5356C25.8349 28.5356 25.36 28.0428 25.36 27.4388C25.36 26.8349 25.8349 26.342 26.4168 26.342C26.9987 26.342 27.4735 26.8349 27.4735 27.4388C27.4735 27.7297 27.3622 28.0087 27.164 28.2144C26.9658 28.4201 26.6971 28.5356 26.4168 28.5356ZM37.2885 28.5356C36.7066 28.5356 36.2317 28.0428 36.2317 27.4388C36.2317 26.8349 36.7066 26.342 37.2885 26.342C37.8704 26.342 38.3452 26.8349 38.3452 27.4388C38.3452 27.7297 38.2339 28.0087 38.0357 28.2144C37.8375 28.4201 37.5687 28.5356 37.2885 28.5356Z" fill="white"/>
<ellipse cx="11" cy="15.5" rx="7" ry="7.5" fill="#FF862F"/>
<path d="M13.4951 15.4307C13.4951 16.6774 13.29 17.6003 12.8799 18.1992C12.473 18.7982 11.8447 19.0977 10.9951 19.0977C10.1715 19.0977 9.5498 18.7884 9.12988 18.1699C8.71322 17.5514 8.50488 16.6383 8.50488 15.4307C8.50488 14.1709 8.70833 13.2432 9.11523 12.6475C9.52214 12.0485 10.1488 11.749 10.9951 11.749C11.8187 11.749 12.4404 12.0615 12.8604 12.6865C13.2835 13.3115 13.4951 14.2262 13.4951 15.4307ZM10.0039 15.4307C10.0039 16.3063 10.0788 16.9346 10.2285 17.3154C10.3815 17.693 10.637 17.8818 10.9951 17.8818C11.3467 17.8818 11.6006 17.6898 11.7568 17.3057C11.9131 16.9215 11.9912 16.2965 11.9912 15.4307C11.9912 14.555 11.9115 13.9268 11.752 13.5459C11.5957 13.1618 11.3434 12.9697 10.9951 12.9697C10.6403 12.9697 10.3864 13.1618 10.2334 13.5459C10.0804 13.9268 10.0039 14.555 10.0039 15.4307Z" fill="white"/>
</svg>
